<svg width="219" height="50" viewBox="0 0 219 50" fill="none" xmlns="http://www.w3.org/2000/svg">
<path d="M22.4484 26.2351C22.4484 20.0314 19.0632 15.2521 10.4579 15.2521H1.25146V37.2181H10.4579C19.0632 37.2181 22.4484 32.4388 22.4484 26.2351ZM16.1842 26.2351C16.1842 30.5713 13.7482 32.1856 10.363 32.1856H7.23089V20.2846H10.363C13.7482 20.2846 16.1842 21.8989 16.1842 26.2351Z" fill="white"/>
<path d="M23.8804 37.2181H41.2808V32.2172H29.8598V28.4507H39.8887V23.703H29.8598V20.253H40.9961V15.2521H23.8804V37.2181Z" fill="white"/>
<path d="M61.5364 22.8801C61.5364 17.3411 57.993 15.2521 52.4882 15.2521H42.9653V37.2181H48.9448V30.5081H52.4882C57.993 30.5081 61.5364 28.419 61.5364 22.8801ZM55.3356 22.8801C55.3356 25.0324 54.3232 25.9186 51.887 25.9186H48.9448V19.8415H51.887C54.3232 19.8415 55.3356 20.7278 55.3356 22.8801Z" fill="white"/>
<path d="M62.189 20.3796H69.1175V37.2181H75.0969V20.3796H82.0254V15.2521H62.189V20.3796Z" fill="white"/>
<path d="M79.5409 34.1428C79.5409 36.1306 81.1493 37.7397 83.1365 37.7397C85.1232 37.7397 86.7477 36.1306 86.7477 34.1428C86.7477 32.1549 85.1232 30.53 83.1365 30.53C81.1493 30.53 79.5409 32.1549 79.5409 34.1428ZM80.2347 34.1428C80.2347 32.5021 81.5277 31.161 83.1365 31.161C84.7445 31.161 86.0536 32.5021 86.0536 34.1428C86.0536 35.7834 84.7445 37.1086 83.1365 37.1086C81.5277 37.1086 80.2347 35.7834 80.2347 34.1428ZM81.4489 35.9255H82.584V34.6949H83.2312L83.9088 35.9255H85.1389L84.3188 34.4741C84.6976 34.3163 84.9808 33.8904 84.9808 33.4171C84.9808 32.5809 84.4448 32.1865 83.53 32.1865H81.4489V35.9255ZM83.8297 33.4328C83.8297 33.7325 83.6412 33.8588 83.2781 33.8588H82.584V33.0699H83.2781C83.6412 33.0699 83.8297 33.1647 83.8297 33.4328Z" fill="white"/>
<path d="M135.307 24.5156H132.012V36H126.666V24.5156H124.615V21.8906L126.775 20.5781V20.3184C126.775 18.9785 126.953 17.8893 127.309 17.0508C127.664 16.2031 128.229 15.5788 129.004 15.1777C129.779 14.7767 130.79 14.5762 132.039 14.5762C132.841 14.5762 133.566 14.64 134.213 14.7676C134.869 14.8952 135.553 15.0775 136.264 15.3145L135.115 18.7734C134.851 18.7005 134.555 18.6367 134.227 18.582C133.908 18.5273 133.561 18.5 133.188 18.5C132.777 18.5 132.477 18.6276 132.285 18.8828C132.103 19.1289 132.012 19.5345 132.012 20.0996V20.5098H135.307V24.5156ZM142.225 36.2734C140.63 36.2734 139.317 35.5944 138.287 34.2363C137.257 32.8783 136.742 30.8913 136.742 28.2754C136.742 25.6322 137.271 23.6315 138.328 22.2734C139.385 20.9154 140.753 20.2363 142.43 20.2363C143.122 20.2363 143.719 20.3366 144.221 20.5371C144.722 20.7376 145.155 21.0111 145.52 21.3574C145.893 21.6947 146.217 22.0775 146.49 22.5059H146.6C146.536 22.1139 146.477 21.5762 146.422 20.8926C146.367 20.1999 146.34 19.5254 146.34 18.8691V14.7266H151.727V36H147.693L146.545 34.0449H146.34C146.094 34.4551 145.784 34.8288 145.41 35.166C145.046 35.5033 144.599 35.7721 144.07 35.9727C143.551 36.1732 142.936 36.2734 142.225 36.2734ZM144.412 32.0488C145.269 32.0488 145.87 31.7799 146.217 31.2422C146.572 30.6953 146.764 29.8659 146.791 28.7539V28.3301C146.791 27.1087 146.618 26.1745 146.271 25.5273C145.934 24.8711 145.296 24.543 144.357 24.543C143.719 24.543 143.191 24.8529 142.771 25.4727C142.352 26.0924 142.143 27.054 142.143 28.3574C142.143 29.6426 142.352 30.5814 142.771 31.1738C143.2 31.7572 143.747 32.0488 144.412 32.0488ZM165.125 20.2363C166.72 20.2363 168.023 20.6875 169.035 21.5898C170.047 22.4922 170.553 23.9368 170.553 25.9238V36H165.207V27.5508C165.207 26.5208 165.057 25.7461 164.756 25.2266C164.464 24.6979 163.99 24.4336 163.334 24.4336C162.322 24.4336 161.643 24.8483 161.297 25.6777C160.951 26.498 160.777 27.6784 160.777 29.2188V36H155.432V20.5098H159.465L160.189 22.5605H160.395C160.723 22.0684 161.115 21.6491 161.57 21.3027C162.026 20.9564 162.55 20.6921 163.143 20.5098C163.735 20.3275 164.396 20.2363 165.125 20.2363ZM179.002 36.2734C177.407 36.2734 176.094 35.5944 175.064 34.2363C174.035 32.8783 173.52 30.8913 173.52 28.2754C173.52 25.6322 174.048 23.6315 175.105 22.2734C176.163 20.9154 177.53 20.2363 179.207 20.2363C179.9 20.2363 180.497 20.3366 180.998 20.5371C181.499 20.7376 181.932 21.0111 182.297 21.3574C182.671 21.6947 182.994 22.0775 183.268 22.5059H183.377C183.313 22.1139 183.254 21.5762 183.199 20.8926C183.145 20.1999 183.117 19.5254 183.117 18.8691V14.7266H188.504V36H184.471L183.322 34.0449H183.117C182.871 34.4551 182.561 34.8288 182.188 35.166C181.823 35.5033 181.376 35.7721 180.848 35.9727C180.328 36.1732 179.713 36.2734 179.002 36.2734ZM181.189 32.0488C182.046 32.0488 182.648 31.7799 182.994 31.2422C183.35 30.6953 183.541 29.8659 183.568 28.7539V28.3301C183.568 27.1087 183.395 26.1745 183.049 25.5273C182.712 24.8711 182.074 24.543 181.135 24.543C180.497 24.543 179.968 24.8529 179.549 25.4727C179.13 26.0924 178.92 27.054 178.92 28.3574C178.92 29.6426 179.13 30.5814 179.549 31.1738C179.977 31.7572 180.524 32.0488 181.189 32.0488Z" fill="#66E5BF"/>
<path d="M100.4 34L99 32.6L104.6 27L99 21.4L100.4 20L106 25.6L111.6 20L113 21.4L107.4 27L113 32.6L111.6 34L106 28.4L100.4 34Z" fill="white"/>
</svg>
