<svg width="12" height="18" viewBox="0 0 12 18" fill="none" xmlns="http://www.w3.org/2000/svg">
<path d="M6 1C2.955 5.5 1 8.31 1 11.045C1 12.3711 1.52678 13.6429 2.46447 14.5805C3.40215 15.5182 4.67392 16.045 6 16.045C7.32608 16.045 8.59785 15.5182 9.53553 14.5805C10.4732 13.6429 11 12.3711 11 11.045C11 8.31 9.045 5.5 6 1Z" stroke="#2885C7" stroke-width="2" stroke-linecap="round" stroke-linejoin="round"/>
<path d="M3.12003 7.59498C3.41593 7.34808 3.7955 7.22454 4.18003 7.24998C4.56456 7.22454 4.94413 7.34808 5.24003 7.59498C5.36603 7.71977 5.46415 7.86985 5.52793 8.03532C5.5917 8.20079 5.61968 8.3779 5.61003 8.55498V9.17498C5.61921 9.3505 5.59097 9.52598 5.52718 9.68976C5.46339 9.85355 5.36551 10.0019 5.24003 10.125C4.94216 10.3678 4.56358 10.4893 4.18003 10.465C3.79617 10.4918 3.41667 10.3701 3.12003 10.125C2.99455 10.0019 2.89667 9.85355 2.83288 9.68976C2.76909 9.52598 2.74085 9.3505 2.75003 9.17498V8.55498C2.74038 8.3779 2.76836 8.20079 2.83213 8.03532C2.89591 7.86985 2.99403 7.71977 3.12003 7.59498ZM8.62003 7.47998C8.63091 7.51397 8.63294 7.55017 8.62594 7.58516C8.61894 7.62015 8.60314 7.65279 8.58003 7.67998L4.50003 13.345C4.44454 13.4342 4.36927 13.5095 4.28003 13.565C4.16412 13.6033 4.04182 13.6186 3.92003 13.61H3.58503C3.48503 13.61 3.42003 13.58 3.39503 13.52C3.37003 13.46 3.39503 13.395 3.44003 13.31L7.54003 7.63498C7.58662 7.5479 7.65795 7.47657 7.74503 7.42998C7.85363 7.39777 7.9669 7.38424 8.08003 7.38998H8.46003C8.55003 7.38998 8.6067 7.42664 8.63003 7.49998L8.62003 7.47998ZM4.17003 8.06498C3.77503 8.06498 3.57503 8.24498 3.57503 8.59998V9.09998C3.57503 9.45498 3.77503 9.63498 4.17003 9.63498C4.56503 9.63498 4.76503 9.45498 4.76503 9.09998V8.59998C4.77503 8.24498 4.57503 8.06498 4.18003 8.06498H4.17003ZM6.75003 10.88C7.04593 10.6331 7.4255 10.5095 7.81003 10.535C8.19456 10.5095 8.57413 10.6331 8.87003 10.88C8.99603 11.0048 9.09415 11.1548 9.15793 11.3203C9.2217 11.4858 9.24968 11.6629 9.24003 11.84V12.46C9.24921 12.6355 9.22097 12.811 9.15718 12.9748C9.09339 13.1385 8.99551 13.2869 8.87003 13.41C8.57339 13.6551 8.19389 13.7768 7.81003 13.75C7.42648 13.7743 7.0479 13.6528 6.75003 13.41C6.62455 13.2869 6.52667 13.1385 6.46288 12.9748C6.39909 12.811 6.37085 12.6355 6.38003 12.46V11.84C6.37166 11.6622 6.40122 11.4846 6.46674 11.3191C6.53225 11.1536 6.63223 11.0039 6.76003 10.88H6.75003ZM7.81003 11.35C7.41503 11.35 7.21503 11.525 7.21503 11.885V12.385C7.21503 12.75 7.41503 12.93 7.81003 12.93C8.20503 12.93 8.40503 12.75 8.40503 12.385V11.885C8.41503 11.525 8.21503 11.35 7.82003 11.35H7.81003Z" fill="#2885C7"/>
</svg>
