<svg width="28" height="22" viewBox="0 0 28 22" fill="none" xmlns="http://www.w3.org/2000/svg">
<mask id="mask0_109_523" style="mask-type:luminance" maskUnits="userSpaceOnUse" x="0" y="0" width="16" height="15">
<path d="M3.88028 14.1163L1.06601 11.7589L0 8.39924L0.533005 4.47959L2.66503 1.67985L5.33005 0H8.52808L11.1931 0.559949L12.7921 2.2398L15.0734 5.71708L11.8754 7.95688H8.67733L7.07831 9.63673V11.8765L4.94629 12.9964L3.88028 14.1163Z" fill="white"/>
</mask>
<g mask="url(#mask0_109_523)">
<path d="M13.1173 9.45752C12.3746 9.46269 11.6383 9.31413 10.9503 9.02032C10.2623 8.72652 9.63612 8.29322 9.10752 7.74518C8.57892 7.19714 8.15825 6.54508 7.86953 5.82624C7.5808 5.1074 7.42969 4.33585 7.4248 3.55566C7.42701 3.05658 7.4897 2.55983 7.61136 2.07739C6.59823 2.20954 5.63853 2.62922 4.83539 3.29133C4.03225 3.95344 3.41603 4.83295 3.05295 5.83534C2.68988 6.83774 2.59367 7.92512 2.77467 8.98065C2.95567 10.0362 3.40703 11.0199 4.08026 11.8262C4.75348 12.6325 5.62311 13.2308 6.5957 13.5568C7.56829 13.8829 8.60707 13.9243 9.6004 13.6767C10.5937 13.4292 11.5041 12.9019 12.2336 12.1516C12.9631 11.4013 13.4842 10.4564 13.7409 9.41833C13.5338 9.44254 13.3257 9.45562 13.1173 9.45752Z" stroke="#72B9D5" stroke-width="2" stroke-linecap="round" stroke-linejoin="round"/>
</g>
<path d="M22.269 12.1565H22.0984C22.4119 10.7988 22.2544 9.3681 21.6542 8.12132C21.0541 6.87454 20.0505 5.89333 18.8238 5.35381C17.5971 4.8143 16.2274 4.75182 14.9608 5.1776C13.6941 5.60338 12.6134 6.48952 11.9127 7.67696C11.347 7.3246 10.7027 7.13558 10.0451 7.12905C9.38747 7.12252 8.7399 7.29872 8.16798 7.63978C7.59605 7.98084 7.1201 8.47465 6.78834 9.07118C6.45658 9.66771 6.2808 10.3458 6.27881 11.0367C6.28045 11.2506 6.29827 11.464 6.33211 11.675C5.35914 11.8752 4.49171 12.4481 3.89825 13.2825C3.3048 14.1169 3.02766 15.1532 3.12066 16.1902C3.21366 17.2272 3.67015 18.1909 4.4015 18.8941C5.13285 19.5974 6.08687 19.99 7.07831 19.9958C7.16707 20.0014 7.25606 20.0014 7.34482 19.9958H22.269C23.2585 19.9958 24.2075 19.5829 24.9072 18.8478C25.6069 18.1127 26 17.1157 26 16.0762C26 15.0366 25.6069 14.0397 24.9072 13.3046C24.2075 12.5695 23.2585 12.1565 22.269 12.1565Z" stroke="#E5E7EB" stroke-width="3" stroke-linejoin="round"/>
</svg>
